<svg width="148" height="36" viewBox="0 0 148 36" fill="none" xmlns="http://www.w3.org/2000/svg">
<path d="M141.256 14.0481C142.501 14.0481 143.634 14.3435 144.654 14.9342C145.674 15.5075 146.47 16.3067 147.04 17.3318C147.628 18.3568 147.922 19.4948 147.922 20.7457C147.922 21.9967 147.628 23.1347 147.04 24.1597C146.47 25.1674 145.674 25.9666 144.654 26.5573C143.634 27.1307 142.501 27.4173 141.256 27.4173C140.011 27.4173 138.887 27.1307 137.884 26.5573C136.881 25.9666 136.086 25.1674 135.498 24.1597C134.927 23.1347 134.642 21.9967 134.642 20.7457C134.642 19.4948 134.927 18.3568 135.498 17.3318C136.086 16.3067 136.881 15.5075 137.884 14.9342C138.887 14.3435 140.011 14.0481 141.256 14.0481ZM141.282 18.0615C140.798 18.0615 140.357 18.1831 139.959 18.4263C139.579 18.6522 139.276 18.9736 139.051 19.3906C138.826 19.7902 138.714 20.2419 138.714 20.7457C138.714 21.2496 138.826 21.71 139.051 22.127C139.276 22.5266 139.579 22.8393 139.959 23.0652C140.357 23.291 140.798 23.4039 141.282 23.4039C141.749 23.4039 142.181 23.291 142.579 23.0652C142.977 22.8393 143.288 22.5266 143.513 22.127C143.738 21.71 143.85 21.2496 143.85 20.7457C143.85 20.2419 143.738 19.7902 143.513 19.3906C143.288 18.9736 142.977 18.6522 142.579 18.4263C142.181 18.1831 141.749 18.0615 141.282 18.0615Z" fill="#222222"/>
<path d="M125.778 8.91406L129.461 15.1165L133.145 8.91406H138.255L131.614 19.573V27.1567H127.231V19.573L120.461 8.91406H125.778Z" fill="#222222"/>
<path d="M117.513 14.0481C118.758 14.0481 119.89 14.3435 120.911 14.9342C121.931 15.5075 122.726 16.3067 123.297 17.3318C123.885 18.3568 124.179 19.4948 124.179 20.7457C124.179 21.9967 123.885 23.1347 123.297 24.1597C122.726 25.1674 121.931 25.9666 120.911 26.5573C119.89 27.1307 118.758 27.4173 117.513 27.4173C116.268 27.4173 115.144 27.1307 114.141 26.5573C113.138 25.9666 112.342 25.1674 111.754 24.1597C111.184 23.1347 110.898 21.9967 110.898 20.7457C110.898 19.4948 111.184 18.3568 111.754 17.3318C112.342 16.3067 113.138 15.5075 114.141 14.9342C115.144 14.3435 116.268 14.0481 117.513 14.0481ZM117.539 18.0615C117.054 18.0615 116.614 18.1831 116.216 18.4263C115.835 18.6522 115.533 18.9736 115.308 19.3906C115.083 19.7902 114.971 20.2419 114.971 20.7457C114.971 21.2496 115.083 21.71 115.308 22.127C115.533 22.5266 115.835 22.8393 116.216 23.0652C116.614 23.291 117.054 23.4039 117.539 23.4039C118.006 23.4039 118.438 23.291 118.836 23.0652C119.233 22.8393 119.545 22.5266 119.769 22.127C119.994 21.71 120.107 21.2496 120.107 20.7457C120.107 20.2419 119.994 19.7902 119.769 19.3906C119.545 18.9736 119.233 18.6522 118.836 18.4263C118.438 18.1831 118.006 18.0615 117.539 18.0615Z" fill="#222222"/>
<path d="M110.561 23.6124C110.077 24.7765 109.29 25.706 108.201 26.4009C107.111 27.0785 105.866 27.4173 104.466 27.4173C103.203 27.4173 102.062 27.1307 101.042 26.5573C100.021 25.9666 99.2172 25.1674 98.6292 24.1597C98.0413 23.152 97.7473 22.0227 97.7473 20.7718C97.7473 19.5035 98.0413 18.3568 98.6292 17.3318C99.2172 16.3067 100.021 15.5075 101.042 14.9342C102.062 14.3435 103.203 14.0481 104.466 14.0481C105.296 14.0481 106.082 14.1871 106.826 14.4651C107.57 14.7257 108.227 15.0992 108.797 15.5857C109.368 16.0548 109.826 16.6107 110.172 17.2536L106.644 19.2603C106.42 18.8954 106.117 18.6087 105.737 18.4003C105.373 18.1744 104.95 18.0615 104.466 18.0615C103.947 18.0615 103.488 18.1831 103.091 18.4263C102.693 18.6522 102.382 18.9736 102.157 19.3906C101.932 19.8075 101.82 20.268 101.82 20.7718C101.82 21.2583 101.932 21.71 102.157 22.127C102.382 22.5266 102.693 22.8393 103.091 23.0652C103.506 23.291 103.964 23.4039 104.466 23.4039C105.019 23.4039 105.503 23.2823 105.918 23.0391C106.333 22.7785 106.644 22.4223 106.852 21.9706L110.561 23.6124Z" fill="#222222"/>
<path d="M89.0168 14.3087H93.1671V27.1567H89.0168V14.3087ZM93.1152 15.8202C93.3919 15.3164 93.8242 14.8994 94.4121 14.5693C95.0174 14.2218 95.588 14.0481 96.1241 14.0481C96.7467 14.0481 97.2827 14.135 97.7323 14.3087L97.4989 18.2178C96.9801 18.0267 96.4094 17.9312 95.7869 17.9312C95.3546 17.9312 94.8618 18.1049 94.3084 18.4524C93.755 18.7825 93.3573 19.2429 93.1152 19.8336V15.8202Z" fill="#222222"/>
<path d="M87.0634 27.1567H82.8873V14.3087H87.0634V27.1567ZM82.9132 19.4948C82.6711 19.0605 82.308 18.713 81.8238 18.4524C81.3569 18.1744 80.8381 18.0354 80.2674 18.0354C79.766 18.0354 79.3077 18.157 78.8927 18.4003C78.4777 18.6261 78.1491 18.9475 77.907 19.3645C77.6822 19.7641 77.5698 20.2245 77.5698 20.7457C77.5698 21.2496 77.6822 21.71 77.907 22.127C78.1491 22.5266 78.4777 22.848 78.8927 23.0912C79.3077 23.3345 79.766 23.4561 80.2674 23.4561C80.8381 23.4561 81.3569 23.3258 81.8238 23.0652C82.2907 22.7872 82.6538 22.431 82.9132 21.9967V25.7234C82.6365 26.2272 82.161 26.6355 81.4866 26.9482C80.8295 27.261 80.1118 27.4173 79.3336 27.4173C78.2615 27.4173 77.2758 27.122 76.3766 26.5313C75.4947 25.9232 74.7943 25.1066 74.2755 24.0815C73.7568 23.0565 73.4974 21.9445 73.4974 20.7457C73.4974 19.5296 73.7568 18.4089 74.2755 17.3839C74.7943 16.3588 75.4947 15.5509 76.3766 14.9602C77.2758 14.3521 78.2615 14.0481 79.3336 14.0481C80.1118 14.0481 80.8295 14.2131 81.4866 14.5433C82.1437 14.856 82.6192 15.2556 82.9132 15.7421V19.4948Z" fill="#222222"/>
<path d="M59.0673 14.3087H63.2176V15.6899C63.5115 15.2035 63.9871 14.8125 64.6442 14.5172C65.3013 14.2045 66.019 14.0481 66.7971 14.0481C67.852 14.0481 68.829 14.3521 69.7282 14.9602C70.6274 15.5509 71.3364 16.3588 71.8552 17.3839C72.374 18.4089 72.6334 19.5296 72.6334 20.7457C72.6334 21.9445 72.374 23.0565 71.8552 24.0815C71.3364 25.1066 70.6274 25.9232 69.7282 26.5313C68.829 27.122 67.852 27.4173 66.7971 27.4173C66.0363 27.4173 65.3186 27.2696 64.6442 26.9743C63.9871 26.6616 63.5115 26.262 63.2176 25.7755V32.3689H59.0673V14.3087ZM63.2176 22.0227C63.4769 22.4397 63.8314 22.7872 64.2811 23.0652C64.748 23.3258 65.2754 23.4561 65.8633 23.4561C66.3648 23.4561 66.8144 23.3345 67.2122 23.0912C67.6272 22.848 67.9557 22.5266 68.1978 22.127C68.4399 21.71 68.561 21.2496 68.561 20.7457C68.561 20.2419 68.4399 19.7815 68.1978 19.3645C67.9557 18.9475 67.6272 18.6261 67.2122 18.4003C66.8144 18.157 66.3648 18.0354 65.8633 18.0354C65.2927 18.0354 64.7739 18.1657 64.307 18.4263C63.8574 18.6696 63.4942 18.9997 63.2176 19.4166V22.0227Z" fill="#222222"/>
<path d="M58.3643 27.1567H53.6175L49.3894 15.8463L45.1095 27.1567H40.4664L47.6515 8.91406H51.1533L58.3643 27.1567ZM53.9806 24.5245H44.7723L46.2768 20.7196H52.4502L53.9806 24.5245Z" fill="#222222"/>
<path d="M30.5055 27.4846C30.5177 26.2105 30.51 24.6772 30.3208 23.837C30.0141 22.4663 29.0297 21.4328 28.198 20.3611C26.9527 21.117 25.7227 21.8253 24.2226 21.9603C22.672 22.0983 20.4501 22.1596 18.2265 22.155C16.003 22.1581 13.781 22.0983 12.2305 21.9603C10.7304 21.8269 9.50037 21.117 8.25508 20.3611C7.42336 21.4313 6.43903 22.4663 6.13228 23.837C5.94305 24.6772 5.93542 26.212 5.94763 27.4846C7.18529 28.0443 8.80294 28.6346 10.1047 28.6346L18.2281 28.722L26.3514 28.6346C27.6517 28.6346 29.2693 28.0427 30.5085 27.4846H30.5055ZM11.5087 25.0912C11.5087 25.6539 11.0539 26.1108 10.4939 26.1108H8.96624C8.40617 26.1108 7.95139 25.6539 7.95139 25.0912V25.0053C7.95139 24.4426 8.40617 23.9857 8.96624 23.9857H10.4939C11.0539 23.9857 11.5087 24.4426 11.5087 25.0053V25.0912ZM24.9429 25.0912V25.0053C24.9429 24.4426 25.3976 23.9857 25.9577 23.9857H27.4853C28.0454 23.9857 28.5002 24.4426 28.5002 25.0053V25.0912C28.5002 25.6539 28.0454 26.1108 27.4853 26.1108H25.9577C25.3976 26.1108 24.9429 25.6539 24.9429 25.0912Z" fill="#0090FF"/>
<path d="M5.9538 32.4878C5.9538 33.1026 6.44976 33.6009 7.06172 33.6009H8.99376C9.60572 33.6009 10.1017 33.1026 10.1017 32.4878V30.7598C10.1017 30.7598 8.14679 30.6203 5.95227 29.9656V32.4878H5.9538Z" fill="white"/>
<path d="M26.3485 32.4878C26.3485 33.1026 26.8444 33.6009 27.4564 33.6009H29.3884C30.0004 33.6009 30.4964 33.1026 30.4964 32.4878V29.9656C28.3019 30.6203 26.3469 30.7598 26.3469 30.7598V32.4878H26.3485Z" fill="white"/>
<path d="M27.0123 18.5243C25.8449 16.8545 25.5335 15.0392 23.1742 14.7846C22.3516 14.6957 20.3189 14.6328 18.2251 14.6267C16.1313 14.6328 14.097 14.6957 13.276 14.7846C10.9182 15.0407 10.6053 16.8561 9.43787 18.5243C10.4405 19.3982 11.611 19.8091 12.9311 19.9073C13.8712 19.9778 15.9497 20.0361 18.1747 20.0284C18.1915 20.0284 18.2068 20.0284 18.2236 20.0284C18.2403 20.0284 18.2556 20.0284 18.2724 20.0284C20.4974 20.0361 22.576 19.9778 23.516 19.9073C24.8376 19.8091 26.0081 19.3982 27.0093 18.5243H27.0123Z" fill="white"/>
<path d="M10.4939 23.9858H8.9678C8.40731 23.9858 7.95294 24.4423 7.95294 25.0055V25.0898C7.95294 25.6529 8.40731 26.1094 8.9678 26.1094H10.4939C11.0544 26.1094 11.5087 25.6529 11.5087 25.0898V25.0055C11.5087 24.4423 11.0544 23.9858 10.4939 23.9858Z" fill="white"/>
<path d="M27.4839 23.9858H25.9578C25.3973 23.9858 24.9429 24.4423 24.9429 25.0055V25.0898C24.9429 25.6529 25.3973 26.1094 25.9578 26.1094H27.4839C28.0444 26.1094 28.4987 25.6529 28.4987 25.0898V25.0055C28.4987 24.4423 28.0444 23.9858 27.4839 23.9858Z" fill="white"/>
<path d="M32.4162 27.072V26.5108C32.4162 26.5108 32.4162 26.5124 32.4101 26.5154C32.4101 26.494 32.4101 26.4725 32.4101 26.451C32.3963 25.5694 32.4101 24.746 32.4101 23.7755C32.4101 23.498 32.349 23.2174 32.2681 22.9537C32.0957 22.394 31.8408 21.8635 31.5432 21.3606C31.3937 21.1076 31.2335 20.8608 31.0671 20.6185C30.9832 20.4958 30.8977 20.3747 30.8122 20.2551C30.7436 20.1601 30.594 20.019 30.5696 19.9071C30.9114 19.9071 31.2655 19.9071 31.6012 19.9071C31.7065 19.9071 31.8149 19.9071 31.9141 19.8718C31.9294 19.8657 31.9446 19.858 31.9599 19.8503C32.3628 19.7154 32.6527 19.3336 32.6527 18.8844C32.6527 18.3217 32.1979 17.8648 31.6379 17.8648H29.9531C29.7821 17.8648 29.6127 17.8648 29.4418 17.8632C29.3854 17.8632 29.0573 17.8832 29.0267 17.8326C27.6517 15.5143 26.5957 12.9859 23.5175 12.7038C22.5851 12.6179 20.47 12.5551 18.2739 12.552C18.2571 12.552 18.2418 12.552 18.2251 12.552C18.2083 12.552 18.193 12.552 18.1762 12.552C15.9802 12.5551 13.865 12.6179 12.9326 12.7038C9.85447 12.9859 8.7984 15.5143 7.4234 17.8326C7.39287 17.8832 7.06477 17.8632 7.0083 17.8632C6.83738 17.8648 6.66799 17.8648 6.49707 17.8648H4.81226C4.25218 17.8648 3.79742 18.3217 3.79742 18.8844C3.79742 19.3336 4.08737 19.7154 4.49026 19.8503C4.50552 19.858 4.51926 19.8657 4.53605 19.8718C4.63524 19.9071 4.74358 19.9071 4.84888 19.9071C5.18462 19.9071 5.53868 19.9071 5.88052 19.9071C5.8561 20.0175 5.70655 20.1585 5.63788 20.2551C5.55089 20.3747 5.46542 20.4958 5.38302 20.6185C5.21667 20.8608 5.05643 21.1076 4.90688 21.3606C4.60929 21.8635 4.35443 22.394 4.18198 22.9537C4.1011 23.2174 4.04007 23.4995 4.04007 23.7755C4.04007 24.746 4.0538 25.5694 4.04007 26.451C4.04007 26.4725 4.04007 26.494 4.04007 26.5154C4.03549 26.5124 4.03243 26.5108 4.03243 26.5108V27.072C4.02785 28.0104 4.04007 28.9272 4.04007 29.9269C4.04007 30.2965 3.97597 32.8969 4.04007 33.2602C4.2293 34.3243 5.12511 35.2044 6.16743 35.416C6.7626 35.5371 7.37762 35.5034 7.98501 35.508C8.62291 35.5126 9.2715 35.5586 9.88956 35.3991C10.561 35.2259 11.1547 34.7935 11.5561 34.2293C11.9055 33.7371 12.0978 33.1698 12.1467 32.5687C12.1482 32.5427 12.1589 31.4403 12.1741 30.7595H24.2745C24.2897 31.4418 24.2989 32.5442 24.302 32.5687C24.3508 33.1698 24.5431 33.7371 24.8926 34.2293C25.2939 34.7935 25.8876 35.2259 26.559 35.3991C27.1771 35.5586 27.8257 35.5126 28.4636 35.508C29.071 35.5034 29.686 35.5371 30.2812 35.416C31.3235 35.2044 32.2208 34.3243 32.4086 33.2602C32.4726 32.8953 32.4086 30.2965 32.4086 29.9269C32.4086 28.9272 32.4207 28.0104 32.4146 27.072H32.4162ZM30.4979 32.4875C30.4979 33.1023 30.0019 33.6006 29.3899 33.6006H27.4579C26.8459 33.6006 26.35 33.1023 26.35 32.4875V30.7595C26.35 30.7595 28.3049 30.62 30.4994 29.9653V32.4875H30.4979ZM6.1308 23.8368C6.43755 22.4661 7.42188 21.4327 8.2536 20.3609C9.49889 21.1168 10.7289 21.8252 12.2291 21.9601C13.7796 22.0981 16.0016 22.1594 18.2251 22.1548C20.4486 22.1579 22.6706 22.0981 24.2211 21.9601C25.7212 21.8267 26.9513 21.1168 28.1965 20.3609C29.0283 21.4311 30.0126 22.4661 30.3193 23.8368C30.5086 24.677 30.5162 26.2118 30.504 27.4844C29.2663 28.0441 27.6487 28.6344 26.3469 28.6344L18.2235 28.7218L10.1002 28.6344C8.79993 28.6344 7.18228 28.0426 5.9431 27.4844C5.93089 26.2103 5.93851 24.677 6.12775 23.8368H6.1308ZM13.2775 14.7829C14.1001 14.694 16.1328 14.6311 18.2266 14.625C20.3204 14.6311 22.3547 14.694 23.1757 14.7829C25.5335 15.039 25.8464 16.8543 27.0138 18.5225C26.0112 19.3965 24.8407 19.8074 23.5206 19.9055C22.5805 19.9761 20.502 20.0343 18.277 20.0267C18.2602 20.0267 18.2449 20.0267 18.2281 20.0267C18.2113 20.0267 18.1961 20.0267 18.1793 20.0267C15.9543 20.0343 13.8757 19.9761 12.9356 19.9055C11.6141 19.8074 10.4435 19.3965 9.44243 18.5225C10.6099 16.8528 10.9212 15.0374 13.2805 14.7829H13.2775ZM5.95379 32.4875V29.9653C8.14831 30.62 10.1032 30.7595 10.1032 30.7595V32.4875C10.1032 33.1023 9.60724 33.6006 8.99528 33.6006H7.06324C6.45128 33.6006 5.9553 33.1023 5.9553 32.4875H5.95379Z" fill="#222222"/>
<path d="M30.3651 5.83153V6.3559C30.1133 7.1026 29.4632 7.58098 28.6681 7.32186C28.1874 7.16547 27.5418 6.42183 27.116 6.07225C21.9456 1.83738 14.509 1.83431 9.33862 6.07225C8.83501 6.4847 8.20015 7.28966 7.56225 7.38319C6.6878 7.51045 5.94764 6.70549 6.11093 5.83153C6.22844 5.20902 7.47527 4.22007 7.99109 3.81529C14.2694 -1.11262 23.4763 -0.858098 29.3701 4.57119C29.7623 4.93303 30.1926 5.31482 30.3651 5.83306V5.83153Z" fill="#222222"/>
<path d="M17.4681 5.37024C20.3738 5.19545 23.1986 6.07248 25.4664 7.88019C25.8342 8.17458 26.5316 8.73729 26.6994 9.16507C27.0871 10.151 26.3027 11.1368 25.2512 10.9529C24.7186 10.8593 24.3065 10.3027 23.9006 9.97616C20.8744 7.53828 16.6105 7.28989 13.337 9.41192C12.4107 10.0114 11.0219 11.9096 9.9384 10.4745C9.11584 9.38433 10.2467 8.4843 11.0341 7.86026C12.8532 6.41746 15.1393 5.5113 17.4681 5.37024Z" fill="#222222"/>
</svg>
