<svg width="20" height="20" viewBox="0 0 20 20" fill="none" xmlns="http://www.w3.org/2000/svg">
<path d="M14.1667 13.3333C14.1667 12.8731 14.5398 12.5 15 12.5C15.4602 12.5 15.8333 12.8731 15.8333 13.3333V16.3216L16.9108 15.2441C17.2362 14.9187 17.7638 14.9187 18.0892 15.2441C18.4146 15.5696 18.4146 16.0971 18.0892 16.4225L15.5892 18.9225C15.2638 19.2479 14.7362 19.2479 14.4108 18.9225L11.9108 16.4225C11.5854 16.0971 11.5854 15.5696 11.9108 15.2441C12.2362 14.9187 12.7638 14.9187 13.0892 15.2441L14.1667 16.3216V13.3333ZM8.33333 11.6666C8.79357 11.6666 9.16667 12.0397 9.16667 12.5C9.16667 12.9602 8.79357 13.3333 8.33333 13.3333H6.66667C6.20643 13.3333 5.83333 12.9602 5.83333 12.5C5.83333 12.0397 6.20643 11.6666 6.66667 11.6666H8.33333ZM15.8333 10.4166V5.66648C15.8333 4.95283 15.833 4.46762 15.8024 4.09259C15.78 3.81875 15.7437 3.64513 15.6991 3.52049L15.6519 3.40981C15.512 3.13545 15.2993 2.90587 15.0382 2.74575L14.9235 2.68146C14.7932 2.61505 14.6061 2.56076 14.2407 2.53091C13.8657 2.50027 13.3805 2.49998 12.6668 2.49998H7.33317C6.61951 2.49998 6.13431 2.50027 5.75928 2.53091C5.39393 2.56076 5.20683 2.61505 5.0765 2.68146C4.76295 2.84124 4.50792 3.09627 4.34815 3.40981C4.28174 3.54014 4.22744 3.72725 4.19759 4.09259C4.16696 4.46762 4.16667 4.95283 4.16667 5.66648V14.3335C4.16667 15.0471 4.16696 15.5323 4.19759 15.9074C4.22744 16.2727 4.28174 16.4598 4.34815 16.5901L4.41244 16.7049C4.57256 16.9659 4.80214 17.1787 5.0765 17.3185L5.18718 17.3657C5.31182 17.4103 5.48546 17.4467 5.75928 17.4691C6.13431 17.4997 6.6195 17.5 7.33317 17.5H10.4167C10.8769 17.5 11.25 17.8731 11.25 18.3333C11.25 18.7936 10.8769 19.1666 10.4167 19.1666H7.33317C6.64692 19.1666 6.08203 19.1675 5.62337 19.13C5.2135 19.0965 4.83244 19.0296 4.47266 18.8753L4.31966 18.8037C3.77094 18.5241 3.31178 18.0986 2.99154 17.5765L2.86296 17.347C2.65689 16.9426 2.5749 16.5117 2.53662 16.0433C2.49915 15.5846 2.5 15.0197 2.5 14.3335V5.66648C2.5 4.98024 2.49915 4.41534 2.53662 3.95669C2.5749 3.48831 2.65689 3.0574 2.86296 2.65298L2.99154 2.42348C3.31178 1.9014 3.77094 1.47589 4.31966 1.19627L4.47266 1.12466C4.83244 0.970331 5.2135 0.903429 5.62337 0.869936C6.08202 0.832463 6.64693 0.833315 7.33317 0.833315H12.6668C13.3531 0.833315 13.918 0.832463 14.3766 0.869936C14.845 0.90821 15.2759 0.990208 15.6803 1.19627L15.9098 1.32485C16.4319 1.64509 16.8574 2.10425 17.137 2.65298L17.2087 2.80597C17.363 3.16575 17.4299 3.54681 17.4634 3.95669C17.5009 4.41534 17.5 4.98024 17.5 5.66648V10.4166C17.5 10.8769 17.1269 11.25 16.6667 11.25C16.2064 11.25 15.8333 10.8769 15.8333 10.4166ZM11.6667 8.33331C12.1269 8.33331 12.5 8.70641 12.5 9.16665C12.5 9.62689 12.1269 9.99998 11.6667 9.99998H6.66667C6.20643 9.99998 5.83333 9.62689 5.83333 9.16665C5.83333 8.70641 6.20643 8.33331 6.66667 8.33331H11.6667ZM13.3333 4.99998C13.7936 4.99998 14.1667 5.37308 14.1667 5.83331C14.1667 6.29355 13.7936 6.66665 13.3333 6.66665H6.66667C6.20643 6.66665 5.83333 6.29355 5.83333 5.83331C5.83333 5.37308 6.20643 4.99998 6.66667 4.99998H13.3333Z" fill="#414651"/>
</svg>
