<svg width="20" height="20" viewBox="0 0 20 20" fill="none" xmlns="http://www.w3.org/2000/svg">
<path d="M11.6667 11.333C11.6667 11.0861 11.6656 10.9508 11.6577 10.8537C11.6574 10.8499 11.6564 10.8464 11.6561 10.8431C11.653 10.8428 11.6497 10.8425 11.6463 10.8423C11.5492 10.8343 11.4139 10.8333 11.167 10.8333H8.833C8.58611 10.8333 8.45079 10.8343 8.35367 10.8423C8.34996 10.8426 8.34643 10.8428 8.3431 10.8431C8.34279 10.8464 8.34259 10.8499 8.34228 10.8537C8.33435 10.9508 8.33333 11.0861 8.33333 11.333V16.6666H11.6667V11.333ZM17.5 14.8331C17.5 15.2861 17.5009 15.6763 17.4748 15.9961C17.4478 16.3255 17.388 16.6533 17.2274 16.9686C16.9877 17.4387 16.6054 17.821 16.1353 18.0607C15.82 18.2213 15.4921 18.2812 15.1628 18.3081C14.843 18.3342 14.4528 18.3333 13.9998 18.3333H6.00016C5.5472 18.3333 5.15696 18.3342 4.83724 18.3081C4.50786 18.2812 4.17999 18.2213 3.86474 18.0607C3.39456 17.821 3.01227 17.4388 2.77262 16.9686C2.61199 16.6533 2.55215 16.3255 2.52522 15.9961C2.4991 15.6763 2.5 15.2861 2.5 14.8331V8.3325L2.16634 8.58315C1.79815 8.85917 1.27627 8.78446 1.00016 8.41632C0.724132 8.04813 0.798842 7.52625 1.16699 7.25014L8.88346 1.46238C9.07889 1.31864 9.31106 1.16591 9.57601 1.09617L9.68099 1.07257C9.89168 1.03147 10.1083 1.03148 10.319 1.07257L10.424 1.09617L10.5542 1.13767C10.8503 1.24817 11.1006 1.45061 11.2996 1.59991L18.833 7.25014C19.2012 7.52625 19.2759 8.04813 18.9998 8.41632C18.7237 8.78446 18.2018 8.85917 17.8337 8.58315L17.5 8.3325V14.8331ZM13.3333 16.6666H13.9998C14.4803 16.6666 14.7907 16.6656 15.0269 16.6463C15.2532 16.6278 15.3372 16.5965 15.3784 16.5755C15.5351 16.4956 15.6623 16.3684 15.7422 16.2117C15.7632 16.1705 15.7953 16.0865 15.8138 15.8602C15.8331 15.624 15.8333 15.3136 15.8333 14.8331V7.0825L11.1003 3.5335C10.4677 3.05908 10.3315 2.97575 10.2124 2.94431C10.0733 2.90771 9.92665 2.90771 9.78759 2.94431C9.66845 2.97576 9.53229 3.05909 8.89974 3.5335L4.16666 7.0825V14.8331C4.16666 15.3136 4.16772 15.624 4.18701 15.8602C4.20551 16.0865 4.23682 16.1705 4.25781 16.2117C4.33768 16.3684 4.46494 16.4956 4.62158 16.5755C4.66278 16.5965 4.74682 16.6278 4.97314 16.6463C5.20926 16.6656 5.5197 16.6666 6.00016 16.6666H6.66666V11.333C6.66666 11.1135 6.66574 10.8984 6.6805 10.7177C6.69608 10.5273 6.73296 10.3025 6.84814 10.0765C7.00792 9.76293 7.26295 9.5079 7.57649 9.34812C7.80254 9.23294 8.02735 9.19606 8.21777 9.18048C8.39845 9.16572 8.61351 9.16664 8.833 9.16664H11.167C11.3865 9.16664 11.6015 9.16572 11.7822 9.18048C11.9726 9.19606 12.1974 9.23294 12.4235 9.34812C12.6979 9.48793 12.9274 9.70068 13.0876 9.96173L13.1519 10.0765L13.2243 10.2457C13.2839 10.4131 13.3078 10.575 13.3195 10.7177C13.3343 10.8984 13.3333 11.1135 13.3333 11.333V16.6666Z" fill="currentColor"
/>
</svg>
