<svg width="12" height="12" viewBox="0 0 12 12" fill="none" xmlns="http://www.w3.org/2000/svg">
<path d="M8.14645 7.14649C8.34171 6.95123 8.65822 6.95123 8.85348 7.14649C9.04874 7.34175 9.04874 7.65826 8.85348 7.85352L6.35348 10.3535C6.15822 10.5488 5.84171 10.5488 5.64645 10.3535L3.14645 7.85352C2.95118 7.65826 2.95118 7.34175 3.14645 7.14649C3.34171 6.95123 3.65822 6.95123 3.85348 7.14649L5.99996 9.29297L8.14645 7.14649ZM5.68453 1.61231C5.88092 1.45213 6.17042 1.46343 6.35348 1.64649L8.85348 4.14649C9.04874 4.34175 9.04874 4.65826 8.85348 4.85352C8.65822 5.04878 8.34171 5.04878 8.14645 4.85352L5.99996 2.70704L3.85348 4.85352C3.65822 5.04878 3.34171 5.04878 3.14645 4.85352C2.95118 4.65826 2.95118 4.34175 3.14645 4.14649L5.64645 1.64649L5.68453 1.61231Z" fill="#414651"/>
</svg>
