<svg width="20" height="20" viewBox="0 0 20 20" fill="none" xmlns="http://www.w3.org/2000/svg">
<path d="M17.5 7.33317C17.5 6.61951 17.4997 6.13431 17.4691 5.75928C17.4392 5.39393 17.3849 5.20683 17.3185 5.0765C17.1587 4.76296 16.9037 4.50793 16.5902 4.34815C16.4598 4.28174 16.2727 4.22744 15.9074 4.19759C15.5324 4.16696 15.0472 4.16667 14.3335 4.16667H5.6665C4.95285 4.16667 4.46764 4.16696 4.09261 4.19759C3.72726 4.22744 3.54016 4.28174 3.40983 4.34815C3.09629 4.50792 2.84126 4.76295 2.68148 5.0765C2.61507 5.20683 2.56077 5.39393 2.53092 5.75928C2.50029 6.13431 2.5 6.61951 2.5 7.33317V12.6668C2.5 13.3805 2.50029 13.8657 2.53092 14.2407C2.56077 14.6061 2.61507 14.7932 2.68148 14.9235C2.84126 15.237 3.09629 15.4921 3.40983 15.6519C3.54016 15.7183 3.72726 15.7726 4.09261 15.8024C4.46764 15.833 4.95285 15.8333 5.6665 15.8333H14.3335C15.0472 15.8333 15.5324 15.833 15.9074 15.8024C16.2727 15.7726 16.4598 15.7183 16.5902 15.6519C16.9037 15.4921 17.1587 15.237 17.3185 14.9235C17.3849 14.7932 17.4392 14.6061 17.4691 14.2407C17.4997 13.8657 17.5 13.3805 17.5 12.6668V7.33317ZM5.83333 14.1667V13.3333C5.83333 12.8731 6.20643 12.5 6.66667 12.5C7.1269 12.5 7.5 12.8731 7.5 13.3333V14.1667C7.5 14.6269 7.1269 15 6.66667 15C6.20643 15 5.83333 14.6269 5.83333 14.1667ZM5.83333 10.4167V9.58334C5.83333 9.1231 6.20643 8.75 6.66667 8.75C7.1269 8.75 7.5 9.1231 7.5 9.58334V10.4167C7.5 10.8769 7.1269 11.25 6.66667 11.25C6.20643 11.25 5.83333 10.8769 5.83333 10.4167ZM5.83333 6.66667V5.83334C5.83333 5.3731 6.20643 5 6.66667 5C7.1269 5 7.5 5.3731 7.5 5.83334V6.66667C7.5 7.12691 7.1269 7.5 6.66667 7.5C6.20643 7.5 5.83333 7.12691 5.83333 6.66667ZM19.1667 12.6668C19.1667 13.3531 19.1675 13.918 19.13 14.3766C19.0918 14.845 19.0098 15.2759 18.8037 15.6803C18.4842 16.3074 17.9741 16.8175 17.347 17.137C16.9426 17.3431 16.5117 17.4251 16.0433 17.4634C15.5846 17.5009 15.0197 17.5 14.3335 17.5H5.6665C4.98026 17.5 4.41536 17.5009 3.95671 17.4634C3.48833 17.4251 3.05742 17.3431 2.653 17.137C2.02591 16.8175 1.51585 16.3074 1.19629 15.6803C0.990227 15.2759 0.908229 14.845 0.869955 14.3766C0.832482 13.918 0.833334 13.3531 0.833334 12.6668V7.33317C0.833334 6.64693 0.832482 6.08202 0.869955 5.62337C0.908229 5.15499 0.990227 4.72408 1.19629 4.31966C1.51585 3.69257 2.02591 3.18251 2.653 2.86296C3.05742 2.65689 3.48833 2.5749 3.95671 2.53662C4.41536 2.49915 4.98026 2.5 5.6665 2.5H14.3335C15.0197 2.5 15.5846 2.49915 16.0433 2.53662C16.5117 2.5749 16.9426 2.65689 17.347 2.86296C17.9741 3.18251 18.4842 3.69257 18.8037 4.31966C19.0098 4.72408 19.0918 5.15499 19.13 5.62337C19.1675 6.08202 19.1667 6.64693 19.1667 7.33317V12.6668Z" fill="#414651"/>
</svg>
