<svg width="20" height="20" viewBox="0 0 20 20" fill="none" xmlns="http://www.w3.org/2000/svg">
<path d="M13.3333 17.5C13.3333 16.7123 13.3325 16.1631 13.3032 15.7333C13.2816 15.4163 13.246 15.1984 13.1966 15.0301L13.1429 14.8763C12.8892 14.264 12.4027 13.7775 11.7904 13.5238C11.6025 13.446 11.3559 13.3923 10.9334 13.3635C10.5036 13.3342 9.95443 13.3334 9.16667 13.3334H6.66667C5.8789 13.3334 5.32976 13.3342 4.8999 13.3635C4.47748 13.3923 4.23079 13.446 4.04297 13.5238C3.43066 13.7775 2.94416 14.264 2.69043 14.8763C2.61263 15.0641 2.55893 15.3108 2.53011 15.7333C2.5008 16.1631 2.5 16.7123 2.5 17.5C2.5 17.9603 2.1269 18.3334 1.66667 18.3334C1.20643 18.3334 0.833333 17.9603 0.833333 17.5C0.833333 16.7349 0.832598 16.1191 0.866699 15.6193C0.901309 15.1121 0.974839 14.6638 1.15072 14.2391L1.23454 14.0503C1.67582 13.1183 2.44854 12.3806 3.40576 11.9841C3.83044 11.8082 4.27879 11.7347 4.78597 11.7001C5.28577 11.666 5.9015 11.6667 6.66667 11.6667H9.16667C9.93184 11.6667 10.5476 11.666 11.0474 11.7001C11.5545 11.7347 12.0029 11.8082 12.4276 11.9841C13.4485 12.407 14.2597 13.2182 14.6826 14.2391L14.7445 14.3994C14.8767 14.7767 14.9364 15.1756 14.9666 15.6193C15.0007 16.1191 15 16.7349 15 17.5C15 17.9603 14.6269 18.3334 14.1667 18.3334C13.7064 18.3334 13.3333 17.9603 13.3333 17.5ZM17.5 17.5V15.8334C17.5 14.6697 16.7041 13.6899 15.6258 13.4123C15.1802 13.2976 14.9115 12.8431 15.026 12.3975C15.1407 11.9519 15.5952 11.6832 16.0409 11.7977C17.8378 12.2602 19.1667 13.8907 19.1667 15.8334V17.5C19.1667 17.9603 18.7936 18.3334 18.3333 18.3334C17.8731 18.3334 17.5 17.9603 17.5 17.5ZM10.4167 5.83335C10.4167 4.45264 9.29738 3.33335 7.91667 3.33335C6.53596 3.33335 5.41667 4.45264 5.41667 5.83335C5.41667 7.21407 6.53596 8.33335 7.91667 8.33335C9.29738 8.33335 10.4167 7.21407 10.4167 5.83335ZM14.1667 5.83335C14.1667 4.78555 13.5218 3.88636 12.6042 3.51483C12.1777 3.34218 11.9719 2.85658 12.1444 2.43003C12.3171 2.00343 12.8026 1.79757 13.2292 1.97024C14.7546 2.58773 15.8333 4.08341 15.8333 5.83335C15.8333 7.5833 14.7546 9.07898 13.2292 9.69647C12.8026 9.86914 12.3171 9.66328 12.1444 9.23667C11.9719 8.81013 12.1777 8.32453 12.6042 8.15188C13.5218 7.78034 14.1667 6.88116 14.1667 5.83335ZM12.0833 5.83335C12.0833 8.13454 10.2179 10 7.91667 10C5.61548 10 3.75 8.13454 3.75 5.83335C3.75 3.53217 5.61548 1.66669 7.91667 1.66669C10.2179 1.66669 12.0833 3.53217 12.0833 5.83335Z" fill="#414651"/>
</svg>
