<svg width="20" height="20" viewBox="0 0 20 20" fill="none" xmlns="http://www.w3.org/2000/svg">
<path d="M9.4873 1.32709C9.82049 1.21942 10.1795 1.21934 10.5127 1.32709L10.6771 1.39057L10.7967 1.45079C11.0631 1.60278 11.2453 1.82563 11.377 2.0115C11.5299 2.22738 11.6939 2.51245 11.875 2.8253L18.7288 14.6645L18.9852 15.1121C19.0633 15.2527 19.133 15.384 19.1886 15.5043C19.2845 15.7115 19.3867 15.9813 19.3856 16.2888L19.3791 16.4231C19.3361 16.8343 19.1417 17.2124 18.8379 17.4868L18.7012 17.5983C18.4058 17.813 18.0706 17.869 17.8109 17.8928C17.5467 17.9171 17.2168 17.9164 16.8538 17.9164H3.14535C2.78254 17.9165 2.45242 17.9171 2.18831 17.8928C1.96113 17.872 1.6765 17.8263 1.41113 17.6715L1.29801 17.5983C0.963502 17.355 0.733734 16.997 0.6486 16.5965L0.620931 16.4231C0.583057 16.0598 0.701819 15.7411 0.811361 15.5043C0.922733 15.2636 1.08856 14.9785 1.27035 14.6645L8.125 2.8253L8.3846 2.38178C8.46731 2.24455 8.54665 2.11936 8.62305 2.0115C8.77354 1.79904 8.99004 1.53859 9.32292 1.39057L9.4873 1.32709ZM9.98291 2.97504C9.8847 3.11371 9.76455 3.31914 9.56706 3.66026L2.71322 15.4995C2.51495 15.8419 2.39589 16.0493 2.32422 16.2042C2.32015 16.213 2.31706 16.2217 2.31364 16.2294C2.32202 16.2304 2.33086 16.2326 2.34049 16.2335C2.51041 16.2491 2.74976 16.2498 3.14535 16.2498H16.8538C17.2496 16.2498 17.4887 16.2491 17.6587 16.2335C17.6683 16.2326 17.6772 16.2303 17.6855 16.2294C17.6822 16.2218 17.6798 16.2129 17.6758 16.2042C17.6041 16.0493 17.4851 15.842 17.2868 15.4995L10.4321 3.66026C10.2346 3.31915 10.1145 3.11369 10.0163 2.97504C10.0107 2.96713 10.0042 2.96068 9.99919 2.95388C9.9943 2.96054 9.98837 2.96733 9.98291 2.97504ZM10.0081 13.3331C10.4683 13.3331 10.8414 13.7063 10.8415 14.1664C10.8415 14.6267 10.4684 14.9998 10.0081 14.9998H10C9.53976 14.9998 9.16667 14.6267 9.16667 14.1664C9.16677 13.7063 9.53983 13.3331 10 13.3331H10.0081ZM9.16667 10.8331V7.49978C9.16677 7.03963 9.53983 6.66645 10 6.66645C10.4601 6.66656 10.8332 7.0397 10.8333 7.49978V10.8331C10.8333 11.2933 10.4601 11.6663 10 11.6664C9.53976 11.6664 9.16667 11.2934 9.16667 10.8331Z" fill="#414651"/>
</svg>
