<svg width="32" height="32" viewBox="0 0 32 32" fill="none" xmlns="http://www.w3.org/2000/svg">
<path d="M19.5775 17.9108C19.9029 17.5854 20.4304 17.5854 20.7559 17.9108C21.0813 18.2362 21.0813 18.7638 20.7559 19.0892L16.5892 23.2559C16.2638 23.5813 15.7362 23.5813 15.4108 23.2559L11.2441 19.0892C10.9187 18.7638 10.9187 18.2362 11.2441 17.9108C11.5696 17.5854 12.0971 17.5854 12.4225 17.9108L16 21.4883L19.5775 17.9108ZM15.4743 8.68718C15.8016 8.42022 16.2841 8.43905 16.5892 8.74414L20.7559 12.9108C21.0813 13.2362 21.0813 13.7638 20.7559 14.0892C20.4304 14.4146 19.9029 14.4146 19.5775 14.0892L16 10.5117L12.4225 14.0892C12.0971 14.4146 11.5696 14.4146 11.2441 14.0892C10.9187 13.7638 10.9187 13.2362 11.2441 12.9108L15.4108 8.74414L15.4743 8.68718Z" fill="#535862"/>
</svg>
