<svg width="20" height="20" viewBox="0 0 20 20" fill="none" xmlns="http://www.w3.org/2000/svg">
<path d="M16.6667 9.16665H3.33332V14.3335C3.33333 15.0471 3.33362 15.5323 3.36425 15.9074C3.3941 16.2727 3.44839 16.4598 3.5148 16.5901C3.67458 16.9037 3.92961 17.1587 4.24316 17.3185C4.37349 17.3849 4.56059 17.4392 4.92594 17.4691C5.30097 17.4997 5.78617 17.5 6.49983 17.5H13.5002C14.2138 17.5 14.699 17.4997 15.074 17.4691C15.4394 17.4392 15.6265 17.3849 15.7568 17.3185C16.0704 17.1587 16.3254 16.9037 16.4852 16.5901C16.5516 16.4598 16.6059 16.2727 16.6357 15.9074C16.6664 15.5323 16.6667 15.0471 16.6667 14.3335V9.16665ZM12.5 4.99998V4.16665H7.49999V4.99998C7.49999 5.46022 7.1269 5.83331 6.66666 5.83331C6.20642 5.83331 5.83333 5.46022 5.83333 4.99998V4.16909C5.46211 4.1717 5.17057 4.17759 4.92594 4.19757C4.56059 4.22742 4.37349 4.28172 4.24316 4.34812C3.92961 4.5079 3.67458 4.76293 3.5148 5.07648C3.44839 5.20681 3.3941 5.39391 3.36425 5.75926C3.33362 6.13429 3.33333 6.61949 3.33332 7.33315V7.49998H16.6667V7.33315C16.6667 6.61949 16.6664 6.13429 16.6357 5.75926C16.6059 5.39391 16.5516 5.20681 16.4852 5.07648C16.3254 4.76293 16.0704 4.5079 15.7568 4.34812C15.6265 4.28172 15.4394 4.22742 15.074 4.19757C14.8294 4.17759 14.5379 4.1717 14.1667 4.16909V4.99998C14.1667 5.46022 13.7936 5.83331 13.3333 5.83331C12.8731 5.83331 12.5 5.46022 12.5 4.99998ZM18.3333 14.3335C18.3333 15.0197 18.3342 15.5846 18.2967 16.0433C18.2584 16.5117 18.1764 16.9426 17.9704 17.347C17.6508 17.9741 17.1408 18.4841 16.5137 18.8037C16.1092 19.0098 15.6783 19.0918 15.21 19.13C14.7513 19.1675 14.1864 19.1666 13.5002 19.1666H6.49983C5.81359 19.1666 5.24868 19.1675 4.79003 19.13C4.32165 19.0918 3.89074 19.0098 3.48632 18.8037C2.85923 18.4841 2.34917 17.9741 2.02961 17.347C1.82355 16.9426 1.74155 16.5117 1.70328 16.0433C1.66581 15.5846 1.66666 15.0197 1.66666 14.3335V7.33315C1.66666 6.64691 1.66581 6.082 1.70328 5.62335C1.74155 5.15497 1.82355 4.72406 2.02961 4.31964C2.34917 3.69255 2.85923 3.18249 3.48632 2.86294C3.89074 2.65687 4.32165 2.57487 4.79003 2.5366C5.0907 2.51203 5.43711 2.50514 5.83333 2.50242V1.66665C5.83333 1.20641 6.20642 0.833313 6.66666 0.833313C7.1269 0.833313 7.49999 1.20641 7.49999 1.66665V2.49998H12.5V1.66665C12.5 1.20641 12.8731 0.833313 13.3333 0.833313C13.7936 0.833313 14.1667 1.20641 14.1667 1.66665V2.50242C14.5629 2.50514 14.9093 2.51203 15.21 2.5366C15.6783 2.57487 16.1092 2.65687 16.5137 2.86294C17.1408 3.18249 17.6508 3.69255 17.9704 4.31964C18.1764 4.72406 18.2584 5.15497 18.2967 5.62335C18.3342 6.082 18.3333 6.64691 18.3333 7.33315V14.3335Z" fill="#414651"/>
</svg>
