<svg width="20" height="20" viewBox="0 0 20 20" fill="none" xmlns="http://www.w3.org/2000/svg">
<path d="M16.6667 8.80393C16.6667 8.27836 16.6593 8.17454 16.6357 8.09022C16.6084 7.99272 16.5633 7.90064 16.5031 7.81923C16.4771 7.78416 16.4445 7.7495 16.3672 7.68332L15.9587 7.35699L10.3068 2.96083C10.1512 2.83981 10.0683 2.77641 10.0057 2.73459C10.0037 2.73323 10.0019 2.73174 10 2.73052C9.99814 2.73174 9.99634 2.73323 9.9943 2.73459C9.93171 2.77641 9.84879 2.83981 9.6932 2.96083L4.04134 7.35699C3.62697 7.67928 3.54898 7.74894 3.49691 7.81923C3.43669 7.90064 3.39159 7.99272 3.36426 8.09022C3.34066 8.17454 3.33334 8.27836 3.33333 8.80393V14.8334C3.33333 15.3138 3.33439 15.6243 3.35368 15.8604C3.37218 16.0866 3.40349 16.1708 3.42448 16.212C3.50437 16.3686 3.63163 16.4959 3.78825 16.5757C3.82945 16.5967 3.91348 16.628 4.13981 16.6465C4.37593 16.6658 4.68637 16.6669 5.16683 16.6669H14.8332C15.3136 16.6669 15.6241 16.6658 15.8602 16.6465C16.0865 16.628 16.1706 16.5967 16.2118 16.5757C16.3684 16.4959 16.4956 16.3686 16.5755 16.212C16.5965 16.1708 16.6278 16.0866 16.6463 15.8604C16.6656 15.6243 16.6667 15.3138 16.6667 14.8334V8.80393ZM13.3333 13.3335C13.7936 13.3335 14.1667 13.7066 14.1667 14.1669C14.1665 14.627 13.7935 15.0002 13.3333 15.0002H6.66667C6.2065 15.0002 5.83345 14.627 5.83333 14.1669C5.83333 13.7066 6.20643 13.3335 6.66667 13.3335H13.3333ZM18.3333 14.8334C18.3333 15.2861 18.3342 15.6759 18.3081 15.9955C18.2812 16.3249 18.2213 16.6527 18.0607 16.968C17.8211 17.4383 17.4389 17.8212 16.9686 18.0609C16.6534 18.2215 16.3255 18.2806 15.9961 18.3075C15.6764 18.3336 15.2861 18.3336 14.8332 18.3336H5.16683C4.71387 18.3336 4.32363 18.3336 4.00391 18.3075C3.67454 18.2806 3.34665 18.2215 3.03141 18.0609C2.56109 17.8212 2.17894 17.4383 1.93929 16.968C1.7787 16.6527 1.71881 16.3249 1.69189 15.9955C1.6658 15.6759 1.66667 15.2861 1.66667 14.8334V8.80393C1.66666 8.37262 1.65969 7.99737 1.75944 7.641C1.84139 7.34839 1.97591 7.07317 2.15658 6.82883C2.3766 6.53135 2.67718 6.30663 3.01758 6.04188L8.85661 1.50005C9.05578 1.34814 9.29262 1.18714 9.56462 1.1135C9.81415 1.04597 10.0755 1.0376 10.328 1.08827L10.4354 1.1135L10.5688 1.15744C10.8724 1.27421 11.1277 1.48791 11.3306 1.64572L16.9824 6.04188L17.229 6.23475C17.4675 6.42362 17.6783 6.60562 17.8434 6.82883C18.0241 7.07317 18.1586 7.34839 18.2406 7.641C18.3403 7.99737 18.3333 8.37262 18.3333 8.80393V14.8334Z" fill="#414651"/>
</svg>
