<svg width="20" height="20" viewBox="0 0 20 20" fill="none" xmlns="http://www.w3.org/2000/svg">
<path d="M5 3.33333C5 2.8731 5.3731 2.5 5.83333 2.5C6.29357 2.5 6.66667 2.8731 6.66667 3.33333V14.6549L8.57747 12.7441C8.90291 12.4187 9.43042 12.4187 9.75586 12.7441C10.0813 13.0696 10.0813 13.5971 9.75586 13.9225L6.42253 17.2559C6.09709 17.5813 5.56958 17.5813 5.24414 17.2559L1.91081 13.9225C1.58537 13.5971 1.58537 13.0696 1.91081 12.7441C2.23624 12.4187 2.76376 12.4187 3.08919 12.7441L5 14.6549V3.33333ZM13.3333 16.6667V5.34505L11.4225 7.25586C11.0971 7.5813 10.5696 7.5813 10.2441 7.25586C9.9187 6.93042 9.9187 6.40291 10.2441 6.07747L13.5775 2.74414L13.641 2.68717C13.9683 2.42022 14.4508 2.43904 14.7559 2.74414L18.0892 6.07747C18.4146 6.40291 18.4146 6.93042 18.0892 7.25586C17.7638 7.5813 17.2362 7.5813 16.9108 7.25586L15 5.34505V16.6667C15 17.1269 14.6269 17.5 14.1667 17.5C13.7064 17.5 13.3333 17.1269 13.3333 16.6667Z" fill="#414651"/>
</svg>
